<mxfile host="65bd71144e">
    <diagram id="UqIBRoGV34S-8ik016u5" name="Page-1">
        <mxGraphModel dx="821" dy="627" grid="1" gridSize="10" guides="1" tooltips="1" connect="1" arrows="1" fold="1" page="1" pageScale="1" pageWidth="850" pageHeight="1100" math="0" shadow="0">
            <root>
                <mxCell id="0"/>
                <mxCell id="1" parent="0"/>
                <mxCell id="2" value="Domain" style="rounded=0;whiteSpace=wrap;html=1;fillColor=#fff2cc;strokeColor=#d6b656;" parent="1" vertex="1">
                    <mxGeometry x="10" y="10" width="100" height="40" as="geometry"/>
                </mxCell>
                <mxCell id="3" value="Aggregate" style="rounded=0;whiteSpace=wrap;html=1;fillColor=#f8cecc;strokeColor=#b85450;" parent="1" vertex="1">
                    <mxGeometry x="120" y="10" width="110" height="40" as="geometry"/>
                </mxCell>
                <mxCell id="4" value="Entity" style="rounded=0;whiteSpace=wrap;html=1;fillColor=#dae8fc;strokeColor=#6c8ebf;" parent="1" vertex="1">
                    <mxGeometry x="240" y="10" width="100" height="40" as="geometry"/>
                </mxCell>
                <mxCell id="5" value="Value Object" style="rounded=0;whiteSpace=wrap;html=1;fillColor=#d5e8d4;strokeColor=#82b366;" parent="1" vertex="1">
                    <mxGeometry x="350" y="10" width="110" height="40" as="geometry"/>
                </mxCell>
                <mxCell id="6" value="User" style="rounded=0;whiteSpace=wrap;html=1;fillColor=#dae8fc;strokeColor=#6c8ebf;" parent="1" vertex="1">
                    <mxGeometry x="10" y="80" width="100" height="40" as="geometry"/>
                </mxCell>
                <mxCell id="7" value="Message" style="rounded=0;whiteSpace=wrap;html=1;fillColor=#dae8fc;strokeColor=#6c8ebf;" parent="1" vertex="1">
                    <mxGeometry x="120" y="80" width="100" height="40" as="geometry"/>
                </mxCell>
                <mxCell id="8" value="Message Room" style="rounded=0;whiteSpace=wrap;html=1;fillColor=#dae8fc;strokeColor=#6c8ebf;" parent="1" vertex="1">
                    <mxGeometry x="230" y="80" width="100" height="40" as="geometry"/>
                </mxCell>
                <mxCell id="9" value="User" style="rounded=0;whiteSpace=wrap;html=1;fillColor=#dae8fc;strokeColor=#6c8ebf;" parent="1" vertex="1">
                    <mxGeometry x="10" y="160" width="100" height="40" as="geometry"/>
                </mxCell>
                <mxCell id="10" value="Message Room" style="rounded=0;whiteSpace=wrap;html=1;fillColor=#dae8fc;strokeColor=#6c8ebf;" parent="1" vertex="1">
                    <mxGeometry x="10" y="210" width="100" height="40" as="geometry"/>
                </mxCell>
                <mxCell id="11" value="Message" style="rounded=0;whiteSpace=wrap;html=1;fillColor=#dae8fc;strokeColor=#6c8ebf;" parent="1" vertex="1">
                    <mxGeometry x="10" y="270" width="100" height="40" as="geometry"/>
                </mxCell>
                <mxCell id="12" value="Message Room" style="rounded=0;whiteSpace=wrap;html=1;fillColor=#dae8fc;strokeColor=#6c8ebf;" parent="1" vertex="1">
                    <mxGeometry x="160" y="160" width="100" height="40" as="geometry"/>
                </mxCell>
                <mxCell id="13" value="Message" style="rounded=0;whiteSpace=wrap;html=1;fillColor=#dae8fc;strokeColor=#6c8ebf;" parent="1" vertex="1">
                    <mxGeometry x="160" y="210" width="100" height="40" as="geometry"/>
                </mxCell>
                <mxCell id="14" value="User" style="rounded=0;whiteSpace=wrap;html=1;fillColor=#dae8fc;strokeColor=#6c8ebf;" parent="1" vertex="1">
                    <mxGeometry x="160" y="270" width="100" height="40" as="geometry"/>
                </mxCell>
                <mxCell id="15" value="User" style="rounded=0;whiteSpace=wrap;html=1;fillColor=#dae8fc;strokeColor=#6c8ebf;" parent="1" vertex="1">
                    <mxGeometry x="170" y="280" width="100" height="40" as="geometry"/>
                </mxCell>
                <mxCell id="16" value="Message Room" style="rounded=0;whiteSpace=wrap;html=1;fillColor=#dae8fc;strokeColor=#6c8ebf;" parent="1" vertex="1">
                    <mxGeometry x="20" y="220" width="100" height="40" as="geometry"/>
                </mxCell>
                <mxCell id="17" value="Message" style="rounded=0;whiteSpace=wrap;html=1;fillColor=#dae8fc;strokeColor=#6c8ebf;" parent="1" vertex="1">
                    <mxGeometry x="20" y="280" width="100" height="40" as="geometry"/>
                </mxCell>
                <mxCell id="18" value="Message" style="rounded=0;whiteSpace=wrap;html=1;fillColor=#dae8fc;strokeColor=#6c8ebf;" parent="1" vertex="1">
                    <mxGeometry x="170" y="220" width="100" height="40" as="geometry"/>
                </mxCell>
                <mxCell id="20" value="Message" style="rounded=0;whiteSpace=wrap;html=1;fillColor=#dae8fc;strokeColor=#6c8ebf;" parent="1" vertex="1">
                    <mxGeometry x="320" y="160" width="100" height="40" as="geometry"/>
                </mxCell>
                <mxCell id="21" value="Message Room" style="rounded=0;whiteSpace=wrap;html=1;fillColor=#dae8fc;strokeColor=#6c8ebf;" parent="1" vertex="1">
                    <mxGeometry x="320" y="210" width="100" height="40" as="geometry"/>
                </mxCell>
                <mxCell id="22" value="User" style="rounded=0;whiteSpace=wrap;html=1;fillColor=#dae8fc;strokeColor=#6c8ebf;" parent="1" vertex="1">
                    <mxGeometry x="320" y="260" width="100" height="40" as="geometry"/>
                </mxCell>
                <mxCell id="23" value="User" style="rounded=0;whiteSpace=wrap;html=1;fillColor=#f8cecc;strokeColor=#b85450;" parent="1" vertex="1">
                    <mxGeometry x="10" y="360" width="100" height="40" as="geometry"/>
                </mxCell>
                <mxCell id="29" value="Message Room" style="rounded=0;whiteSpace=wrap;html=1;fillColor=#dae8fc;strokeColor=#6c8ebf;" parent="1" vertex="1">
                    <mxGeometry x="10" y="410" width="100" height="40" as="geometry"/>
                </mxCell>
                <mxCell id="30" value="Message" style="rounded=0;whiteSpace=wrap;html=1;fillColor=#dae8fc;strokeColor=#6c8ebf;" parent="1" vertex="1">
                    <mxGeometry x="10" y="460" width="100" height="40" as="geometry"/>
                </mxCell>
                <mxCell id="32" value="Message Room" style="rounded=0;whiteSpace=wrap;html=1;fillColor=#f8cecc;strokeColor=#b85450;" parent="1" vertex="1">
                    <mxGeometry x="160" y="360" width="100" height="40" as="geometry"/>
                </mxCell>
                <mxCell id="33" value="Message" style="rounded=0;whiteSpace=wrap;html=1;fillColor=#dae8fc;strokeColor=#6c8ebf;" parent="1" vertex="1">
                    <mxGeometry x="160" y="410" width="100" height="40" as="geometry"/>
                </mxCell>
                <mxCell id="34" value="UserId" style="rounded=0;whiteSpace=wrap;html=1;fillColor=#d5e8d4;strokeColor=#82b366;" parent="1" vertex="1">
                    <mxGeometry x="160" y="460" width="100" height="40" as="geometry"/>
                </mxCell>
            </root>
        </mxGraphModel>
    </diagram>
</mxfile>